<?xml version="1.0" encoding="UTF-8" standalone="no"?>
<!-- Created with Inkscape (http://www.inkscape.org/) -->

<svg
   xmlns:dc="http://purl.org/dc/elements/1.1/"
   xmlns:cc="http://creativecommons.org/ns#"
   xmlns:rdf="http://www.w3.org/1999/02/22-rdf-syntax-ns#"
   xmlns:svg="http://www.w3.org/2000/svg"
   xmlns="http://www.w3.org/2000/svg"
   xmlns:sodipodi="http://sodipodi.sourceforge.net/DTD/sodipodi-0.dtd"
   xmlns:inkscape="http://www.inkscape.org/namespaces/inkscape"
   width="91.632927"
   height="30.33733"
   viewBox="0 0 24.244544 8.0267517"
   version="1.1"
   id="svg42565"
   inkscape:version="0.92.0 r15299"
   sodipodi:docname="world movies.svg">
  <defs
     id="defs42559">
    <linearGradient
       id="linearGradient40795"
       spreadMethod="pad"
       gradientTransform="matrix(-5.5878585,21.504678,21.504678,5.5878585,348.17819,207.38986)"
       gradientUnits="userSpaceOnUse"
       y2="0"
       x2="1"
       y1="0"
       x1="0">
      <stop
         id="stop40789"
         offset="0"
         style="stop-opacity:1;stop-color:#0699dc" />
      <stop
         id="stop40791"
         offset="0.44568857"
         style="stop-opacity:1;stop-color:#0699dc" />
      <stop
         id="stop40793"
         offset="1"
         style="stop-opacity:1;stop-color:#22b6f0" />
    </linearGradient>
    <linearGradient
       id="linearGradient40773"
       spreadMethod="pad"
       gradientTransform="matrix(-5.0225386,19.329144,19.329144,5.0225386,361.14923,213.78804)"
       gradientUnits="userSpaceOnUse"
       y2="0"
       x2="1"
       y1="0"
       x1="0">
      <stop
         id="stop40767"
         offset="0"
         style="stop-opacity:1;stop-color:#0699dc" />
      <stop
         id="stop40769"
         offset="0.44568857"
         style="stop-opacity:1;stop-color:#0699dc" />
      <stop
         id="stop40771"
         offset="1"
         style="stop-opacity:1;stop-color:#22b6f0" />
    </linearGradient>
    <linearGradient
       id="linearGradient40751"
       spreadMethod="pad"
       gradientTransform="matrix(-3.9571296,16.437253,16.437253,3.9571296,354.45786,220.44228)"
       gradientUnits="userSpaceOnUse"
       y2="0"
       x2="1"
       y1="0"
       x1="0">
      <stop
         id="stop40747"
         offset="0"
         style="stop-opacity:1;stop-color:#515254" />
      <stop
         id="stop40749"
         offset="1"
         style="stop-opacity:1;stop-color:#282626" />
    </linearGradient>
    <linearGradient
       id="linearGradient40731"
       spreadMethod="pad"
       gradientTransform="matrix(-3.9570989,16.437099,16.437099,3.9570989,340.6261,217.11238)"
       gradientUnits="userSpaceOnUse"
       y2="0"
       x2="1"
       y1="0"
       x1="0">
      <stop
         id="stop40727"
         offset="0"
         style="stop-opacity:1;stop-color:#515254" />
      <stop
         id="stop40729"
         offset="1"
         style="stop-opacity:1;stop-color:#282626" />
    </linearGradient>
    <clipPath
       id="clipPath40675"
       clipPathUnits="userSpaceOnUse">
      <path
         inkscape:connector-curvature="0"
         id="path40673"
         d="m 332.599,213.277 h 69.342 v 23.73 h -69.342 z" />
    </clipPath>
  </defs>
  <sodipodi:namedview
     id="base"
     pagecolor="#ffffff"
     bordercolor="#666666"
     borderopacity="1.0"
     inkscape:pageopacity="0.0"
     inkscape:pageshadow="2"
     inkscape:zoom="8.8488807"
     inkscape:cx="45.316466"
     inkscape:cy="14.668666"
     inkscape:document-units="mm"
     inkscape:current-layer="layer1"
     showgrid="false"
     fit-margin-top="0"
     fit-margin-left="0"
     fit-margin-right="0"
     fit-margin-bottom="0"
     units="px"
     inkscape:window-width="1280"
     inkscape:window-height="744"
     inkscape:window-x="-4"
     inkscape:window-y="-4"
     inkscape:window-maximized="1" />
  <metadata
     id="metadata42562">
    <rdf:RDF>
      <cc:Work
         rdf:about="">
        <dc:format>image/svg+xml</dc:format>
        <dc:type
           rdf:resource="http://purl.org/dc/dcmitype/StillImage" />
        <dc:title></dc:title>
      </cc:Work>
    </rdf:RDF>
  </metadata>
  <g
     inkscape:label="Layer 1"
     inkscape:groupmode="layer"
     id="layer1"
     transform="translate(-133.90883,-228.59838)">
    <g
       id="g42732"
       transform="translate(0.13229267,-0.1322895)">
      <g
         transform="matrix(0.35277777,0,0,-0.35277777,148.00798,232.51798)"
         id="g40665">
        <path
           inkscape:connector-curvature="0"
           id="path40667"
           style="fill:#48494f;fill-opacity:1;fill-rule:nonzero;stroke:none"
           d="M 0,0 H -1.839 L -2.737,4.274 H -2.755 L -3.654,0 H -5.52 l -1.769,6.545 h 1.603 l 1.162,-4.549 h 0.018 l 0.963,4.549 h 1.604 l 0.962,-4.549 h 0.019 l 1.162,4.549 h 1.602 z" />
      </g>
      <g
         transform="matrix(0.35277777,0,0,-0.35277777,16.475106,312.07477)"
         id="g40669">
        <g
           clip-path="url(#clipPath40675)"
           id="g40671">
          <g
             transform="translate(378.0635,226.8444)"
             id="g40677">
            <path
               inkscape:connector-curvature="0"
               id="path40679"
               style="fill:#48494f;fill-opacity:1;fill-rule:nonzero;stroke:none"
               d="M 0,0 C 1.101,0 1.522,0.972 1.522,1.943 1.522,2.915 1.101,3.886 0,3.886 -1.1,3.886 -1.521,2.915 -1.521,1.943 -1.521,0.972 -1.1,0 0,0 m 0,5.353 c 2.063,0 3.227,-1.513 3.227,-3.41 0,-1.898 -1.164,-3.409 -3.227,-3.409 -2.062,0 -3.227,1.511 -3.227,3.409 0,1.897 1.165,3.41 3.227,3.41" />
          </g>
          <g
             transform="translate(383.9584,229.2183)"
             id="g40681">
            <path
               inkscape:connector-curvature="0"
               id="path40683"
               style="fill:#48494f;fill-opacity:1;fill-rule:nonzero;stroke:none"
               d="m 0,0 h 1.43 c 0.513,0 0.788,0.276 0.788,0.77 0,0.486 -0.384,0.706 -0.861,0.706 H 0 Z M -1.705,2.842 H 1.632 C 2.787,2.842 3.924,2.319 3.924,1 3.924,0.293 3.585,-0.376 2.897,-0.641 V -0.66 C 3.594,-0.825 3.795,-1.605 3.85,-2.227 3.869,-2.502 3.896,-3.465 4.125,-3.703 H 2.439 c -0.147,0.22 -0.175,0.862 -0.193,1.045 -0.047,0.66 -0.156,1.337 -0.954,1.337 H 0 v -2.382 h -1.705 z" />
          </g>
          <g
             transform="translate(389.0925,232.0599)"
             id="g40685">
            <path
               inkscape:connector-curvature="0"
               id="path40687"
               style="fill:#48494f;fill-opacity:1;fill-rule:nonzero;stroke:none"
               d="M 0,0 H 1.704 V -5.078 H 4.758 V -6.545 H 0 Z" />
          </g>
          <g
             transform="translate(396.3934,226.9821)"
             id="g40689">
            <path
               inkscape:connector-curvature="0"
               id="path40691"
               style="fill:#48494f;fill-opacity:1;fill-rule:nonzero;stroke:none"
               d="m 0,0 h 0.806 c 1.293,0.027 1.807,0.531 1.807,1.842 0,1.191 -0.642,1.77 -1.807,1.77 H 0 Z m -1.706,5.078 h 2.815 c 2.007,0 3.208,-1.219 3.208,-3.245 0,-2.145 -1.219,-3.3 -3.208,-3.3 h -2.815 z" />
          </g>
          <g
             transform="translate(366.355,224.2065)"
             id="g40693">
            <path
               inkscape:connector-curvature="0"
               id="path40695"
               style="fill:#48494f;fill-opacity:1;fill-rule:nonzero;stroke:none"
               d="M 0,0 H 2.512 L 3.639,-4.365 H 3.658 L 4.785,0 H 7.296 V -6.545 H 5.693 v 4.967 H 5.674 L 4.299,-6.545 H 2.997 L 1.623,-1.578 H 1.604 V -6.545 H 0 Z" />
          </g>
          <g
             transform="translate(377.5996,218.9901)"
             id="g40697">
            <path
               inkscape:connector-curvature="0"
               id="path40699"
               style="fill:#48494f;fill-opacity:1;fill-rule:nonzero;stroke:none"
               d="M 0,0 C 1.101,0 1.522,0.973 1.522,1.943 1.522,2.915 1.101,3.887 0,3.887 -1.1,3.887 -1.521,2.915 -1.521,1.943 -1.521,0.973 -1.1,0 0,0 m 0,5.354 c 2.063,0 3.227,-1.513 3.227,-3.411 0,-1.897 -1.164,-3.41 -3.227,-3.41 -2.062,0 -3.227,1.513 -3.227,3.41 0,1.898 1.165,3.411 3.227,3.411" />
          </g>
          <g
             transform="translate(384.7799,217.661)"
             id="g40701">
            <path
               inkscape:connector-curvature="0"
               id="path40703"
               style="fill:#48494f;fill-opacity:1;fill-rule:nonzero;stroke:none"
               d="m 0,0 h -1.961 l -2.063,6.545 h 1.779 l 1.283,-4.868 h 0.018 l 1.283,4.868 h 1.779 z" />
          </g>
          <path
             inkscape:connector-curvature="0"
             id="path40705"
             style="fill:#48494f;fill-opacity:1;fill-rule:nonzero;stroke:none"
             d="m 387.433,224.206 h 1.704 v -6.545 h -1.704 z" />
          <g
             transform="translate(390.1006,224.2065)"
             id="g40707">
            <path
               inkscape:connector-curvature="0"
               id="path40709"
               style="fill:#48494f;fill-opacity:1;fill-rule:nonzero;stroke:none"
               d="M 0,0 H 4.52 V -1.367 H 1.705 v -1.145 h 2.512 v -1.32 H 1.705 V -5.079 H 4.611 V -6.545 H 0 Z" />
          </g>
          <g
             transform="translate(396.8697,219.8605)"
             id="g40711">
            <path
               inkscape:connector-curvature="0"
               id="path40713"
               style="fill:#48494f;fill-opacity:1;fill-rule:nonzero;stroke:none"
               d="m 0,0 c 0.037,-0.769 0.514,-1.017 1.238,-1.017 0.513,0 1.045,0.183 1.045,0.67 0,0.577 -0.935,0.687 -1.879,0.952 -0.935,0.266 -1.916,0.687 -1.916,1.889 0,1.43 1.439,1.99 2.667,1.99 1.302,0 2.613,-0.633 2.622,-2.109 H 2.072 C 2.099,2.97 1.541,3.163 1.017,3.163 0.651,3.163 0.193,3.035 0.193,2.605 0.193,2.099 1.137,2.009 2.09,1.742 3.035,1.476 3.988,1.036 3.988,-0.146 c 0,-1.659 -1.412,-2.191 -2.851,-2.191 -1.504,0 -2.833,0.66 -2.842,2.337 z" />
          </g>
        </g>
      </g>
      <g
         transform="matrix(0.35277777,0,0,-0.35277777,16.475106,312.07477)"
         id="g40715">
        <g
           id="g40717">
          <g
             id="g40723">
            <g
               id="g40725">
              <path
                 inkscape:connector-curvature="0"
                 id="path40733"
                 style="fill:url(#linearGradient40731);stroke:none"
                 d="m 332.883,235.876 4.878,-22.003 h 6.871 l -4.878,22.003 z" />
            </g>
          </g>
        </g>
      </g>
      <g
         transform="matrix(0.35277777,0,0,-0.35277777,16.475106,312.07477)"
         id="g40735">
        <g
           id="g40737">
          <g
             id="g40743">
            <g
               id="g40745">
              <path
                 inkscape:connector-curvature="0"
                 id="path40753"
                 style="fill:url(#linearGradient40751);stroke:none"
                 d="m 352.394,235.876 -4.878,-22.003 h 6.871 l 4.878,22.003 z" />
            </g>
          </g>
        </g>
      </g>
      <g
         transform="matrix(0.35277777,0,0,-0.35277777,16.475106,312.07477)"
         id="g40755">
        <g
           id="g40757">
          <g
             id="g40763">
            <g
               id="g40765">
              <path
                 inkscape:connector-curvature="0"
                 id="path40775"
                 style="fill:url(#linearGradient40773);stroke:none"
                 d="m 352.394,235.876 4.878,-22.003 h 6.871 l -4.878,22.003 z" />
            </g>
          </g>
        </g>
      </g>
      <g
         transform="matrix(0.35277777,0,0,-0.35277777,16.475106,312.07477)"
         id="g40777">
        <g
           id="g40779">
          <g
             id="g40785">
            <g
               id="g40787">
              <path
                 inkscape:connector-curvature="0"
                 id="path40797"
                 style="fill:url(#linearGradient40795);stroke:none"
                 d="m 349.509,235.876 h -6.871 l -4.878,-22.003 h 6.872 l 1.441,6.508 1.443,-6.508 h 6.871 l -4.877,22.003 z" />
            </g>
          </g>
        </g>
      </g>
    </g>
  </g>
</svg>
